<svg xmlns="http://www.w3.org/2000/svg" id="Bulgaria_x5F_ЖИВОТОЗАСТРАХОВАНЕ_x5F_hor_x5F_vert_x5F_pantone_x5F_sl30082024" viewBox="235.78 161.11 1417.33 330.12">
  <defs>
    <style>
      .cls-1 {
        fill: #53575a;
      }

      .cls-2 {
        fill: #006547;
      }
    </style>
  </defs>
  <g>
    <path class="cls-2" d="M703.65,288.08l12.26,25.5h22.33c-.46,17.81-19.37,27.9-35.8,27.99-26.19.14-48.47-22.41-48.38-48.56.11-33.13,26.96-47.97,47.33-47.91,14.71.04,27.61,7.13,38.1,17.41l17.93-18.8c-12.8-16.44-34.85-25.15-55.8-25.15-44.83,0-76.43,33.32-76.55,74.45-.09,32.67,22.99,75.14,76.12,75.08,27.24-.03,66.25-18.09,66.04-64.38,0-1.32-.24-11.31-1.16-15.62h-62.42Z"/>
    <path class="cls-2" d="M854.77,255.79c-8.74-3.27-19.49-2.78-27.95,1.78-6.41,3.33-12.19,8.55-16.21,14.8l-.2-16.43h-26.53v110.04h27.15v-58.62c-.03-7.05,2.4-13.11,7.17-17.93,11.63-11.75,26.23-6.04,30.01-3.88l7.21-29.5-.66-.26Z"/>
    <path class="cls-2" d="M1489.55,254.14c-14.33.07-29.15,8.24-36.89,20.3-5.17-13.92-18.02-20.49-32.66-20.3-12.23.16-24.63,6.33-32.26,15.82l-.27-13.97h-26.52v110.04h27.15v-65.82c-.31-12.74,11.33-22.01,23.66-22.01,13.01,0,18.91,10.77,18.52,23.04v64.79h27.16v-65.61c-.29-12.82,11.42-22.59,23.87-22.22,13.79-.58,19.41,10.28,18.93,23.25v64.59h27.16v-66.23c-.5-39.53-21.15-45.74-37.86-45.66Z"/>
    <path class="cls-2" d="M448.36,366.03h67.74c-6.06,24.98-40.54,77.85-113.32,77.85-65.45,0-119.27-54.41-119.27-117.68s51.25-117.71,119.27-117.71c47.95,0,93.26,29.47,112.07,72.63h50.48c-21.8-77.05-89.77-120.01-164.49-120.01-91.02,0-165.06,74.05-165.06,165.06s74.05,165.06,165.06,165.06c112.41,0,170.34-89.73,169.53-167.36h-146.36l24.35,42.16Z"/>
    <polygon class="cls-2" points="399.9 239.65 378.16 323.87 341.9 323.87 317.54 366.03 399.66 366.03 424.01 323.87 424.02 323.87 402.26 239.65 399.9 239.65"/>
    <path class="cls-2" d="M1166.43,254.14c-12.38-.08-25.44,5.49-33.55,14.47l-.21-12.62h-26.52v146.8h27.15v-48.46c8.43,8.3,21.39,13.56,33.54,13.55,30.25-.01,50.54-27.7,50.21-56.97-.4-35.07-19.52-56.57-50.62-56.77ZM1161.69,343.82c-18.03.04-29.41-15.62-29.43-32.91-.01-17.33,11.39-32.76,29.43-32.71,17.91.05,29.03,15.44,29.02,32.71-.01,17.17-11.24,32.88-29.02,32.91Z"/>
    <path class="cls-2" d="M1311.56,269.54c-7.92-10.55-20.29-15.94-33.75-15.81-30.47-.52-51.62,27.45-50.82,56.97-.66,28.61,19.5,57.49,49.17,57.39,13.46,0,26.4-6,35.19-15.83v13.77h27.36v-110.04h-27.15v13.55ZM1283.16,344.03c-18.19,0-28.81-15.98-28.81-33.33,0-17.18,10.83-32.92,28.81-32.91,17.94,0,29.21,15.63,29.22,32.91,0,17.44-11.07,33.32-29.22,33.33Z"/>
    <path class="cls-2" d="M911.28,253.73c-38.97,0-57.41,30.19-57.41,57.18,0,29.33,20.56,57.18,57.41,57.18,33.87,0,57.41-24.52,57.41-57.18,0-30.86-21-57.18-57.41-57.18ZM911.28,344.03c-17.83,0-30.03-15.77-30.04-33.12,0-17.42,12.11-33.12,30.04-33.12s30.05,15.7,30.04,33.12c0,17.35-12.21,33.12-30.04,33.12Z"/>
    <path class="cls-2" d="M1056.32,321.76c.35,13.03-10.72,23.49-23.67,23.04-14.6.37-22.58-9.49-22.02-26.54v-62.32h-26.95v67.67c.14,44.74,36.99,49.57,56.3,40.76,6.67-3.04,12.3-7.18,16.7-12.84l.27,14.45h26.32v-110.04h-26.95v65.82Z"/>
    <path class="cls-2" d="M1625.96,255.99v13.55c-7.92-10.55-20.29-15.94-33.75-15.81-30.47-.52-51.62,27.45-50.82,56.97-.66,28.61,19.5,57.49,49.17,57.39,13.46,0,26.4-6,35.19-15.83v13.77h27.36v-110.04h-27.15ZM1597.56,344.03c-18.19,0-28.81-15.98-28.81-33.33,0-17.18,10.83-32.92,28.81-32.91,17.94,0,29.21,15.63,29.22,32.91,0,17.44-11.07,33.32-29.22,33.33Z"/>
  </g>
  <g>
    <path class="cls-1" d="M670.02,447.89c1.04-.54,1.98-1.24,2.8-2.1.82-.86,1.47-1.82,1.94-2.88.48-1.06.71-2.17.71-3.33,0-2.14-.58-3.99-1.75-5.54-1.17-1.55-2.83-2.74-4.98-3.57-2.15-.83-4.73-1.24-7.73-1.24s-5.65.43-8.22,1.29c-2.57.86-4.75,2.07-6.55,3.64l4.2,6.77c1.12-1.01,2.51-1.8,4.18-2.39,1.67-.59,3.37-.88,5.1-.88,1.45,0,2.66.15,3.62.45.96.3,1.68.73,2.15,1.3.48.57.71,1.28.71,2.14s-.24,1.6-.73,2.22c-.48.62-1.18,1.1-2.08,1.41-.91.32-1.99.48-3.26.48h-7.25v7.1h7.94c2.22,0,3.86.37,4.92,1.1,1.06.74,1.59,1.83,1.59,3.29,0,.99-.31,1.85-.94,2.57-.62.73-1.51,1.29-2.64,1.69s-2.48.6-4.03.6c-2.01,0-3.95-.33-5.82-.98-1.87-.65-3.46-1.56-4.78-2.71l-4.03,7.24c2.05,1.49,4.38,2.62,6.98,3.37,2.6.75,5.5,1.13,8.68,1.13s6.11-.54,8.55-1.62,4.32-2.57,5.66-4.48c1.34-1.9,2.02-4.08,2.04-6.54,0-2.37-.62-4.36-1.87-5.99-1.25-1.62-2.96-2.81-5.15-3.55Z"/>
    <path class="cls-1" d="M702.54,430.07l-14.63,39.16h10.18l2.71-7.94h14.04l2.77,7.94h10.46l-14.77-39.16h-10.77ZM702.91,453.54l4.87-13.54,4.92,13.54h-9.79Z"/>
    <path class="cls-1" d="M765.55,460.21c-1.72.53-3.46.8-5.22.8-2.44,0-4.54-.45-6.29-1.36-1.75-.9-3.1-2.21-4.04-3.9-.94-1.7-1.41-3.74-1.41-6.13,0-1.73.26-3.3.78-4.7.52-1.4,1.28-2.59,2.28-3.58,1-.99,2.21-1.75,3.64-2.28,1.43-.53,3.05-.8,4.88-.8s3.53.28,5.06.83c1.53.55,2.83,1.38,3.92,2.5l4.64-7.64c-1.79-1.51-3.79-2.67-6.01-3.5-2.22-.82-4.96-1.23-8.22-1.23-3,0-5.77.5-8.29,1.5-2.53,1-4.72,2.41-6.57,4.24-1.86,1.83-3.29,4-4.31,6.5s-1.52,5.27-1.52,8.29c0,4.14.87,7.73,2.6,10.77,1.73,3.04,4.15,5.39,7.24,7.05,3.1,1.66,6.67,2.49,10.71,2.49,3.36,0,6.29-.42,8.81-1.27,2.52-.85,4.68-1.97,6.49-3.37l-4.25-7.8c-1.55,1.19-3.18,2.06-4.91,2.59Z"/>
    <polygon class="cls-1" points="785.2 438.55 795.63 438.55 795.63 469.23 804.97 469.23 804.97 438.55 815.41 438.55 815.41 430.07 785.2 430.07 785.2 438.55"/>
    <path class="cls-1" d="M852.94,431.6c-2.26-1.02-4.85-1.52-7.78-1.52h-15.69v39.16h9.29v-13.29h6.18c3.25,0,6-.5,8.28-1.51,2.28-1.01,4.01-2.47,5.2-4.39s1.79-4.26,1.79-7.02-.65-5.05-1.94-6.99-3.07-3.42-5.33-4.43ZM849.29,447.01c-1.09.77-2.62,1.16-4.57,1.16h-5.96v-10.13h6.01c1.85,0,3.33.41,4.46,1.22,1.13.81,1.69,2.11,1.69,3.9s-.55,3.07-1.64,3.85Z"/>
    <path class="cls-1" d="M884.86,430.07l-14.63,39.16h10.18l2.71-7.94h14.04l2.77,7.94h10.46l-14.77-39.16h-10.77ZM885.22,453.54l4.87-13.54,4.92,13.54h-9.79Z"/>
    <polygon class="cls-1" points="956.74 430.07 945.83 430.07 938.53 442.24 931.46 430.07 920.27 430.07 931.88 449.29 919.76 469.23 930.73 469.23 938.14 456.31 945.72 469.23 956.99 469.23 944.85 449.46 956.74 430.07"/>
    <path class="cls-1" d="M1004.21,435.16c-1.88-1.86-4.09-3.32-6.63-4.36s-5.31-1.57-8.33-1.57-5.78.51-8.32,1.54c-2.55,1.03-4.76,2.46-6.64,4.31s-3.34,4.01-4.38,6.49c-1.04,2.48-1.55,5.17-1.55,8.08s.52,5.58,1.55,8.06c1.04,2.48,2.49,4.64,4.38,6.49,1.88,1.85,4.1,3.29,6.64,4.32,2.54,1.04,5.32,1.55,8.32,1.55s5.8-.52,8.33-1.55,4.75-2.48,6.63-4.32c1.88-1.85,3.34-4.01,4.38-6.49,1.04-2.48,1.55-5.17,1.55-8.06s-.52-5.51-1.55-7.99c-1.04-2.47-2.49-4.64-4.38-6.5ZM999.58,454.48c-.55,1.45-1.33,2.68-2.33,3.71-1.01,1.03-2.19,1.81-3.54,2.35-1.35.54-2.84.81-4.46.81-2.13,0-4.03-.48-5.72-1.44-1.69-.96-3.02-2.32-3.99-4.07s-1.45-3.81-1.45-6.18c0-1.79.28-3.4.84-4.84.56-1.44,1.34-2.67,2.34-3.69,1-1.03,2.18-1.81,3.54-2.36,1.36-.55,2.84-.82,4.45-.82,2.14,0,4.06.48,5.75,1.44,1.69.96,3.01,2.32,3.97,4.07.96,1.75,1.44,3.82,1.44,6.21,0,1.77-.28,3.38-.83,4.82Z"/>
    <path class="cls-1" d="M1048.18,447.84c1.03-.47,1.95-1.09,2.78-1.86.83-.77,1.49-1.66,1.97-2.67.49-1.01.73-2.11.73-3.3,0-3.28-1.19-5.76-3.58-7.43-2.39-1.67-5.58-2.5-9.57-2.5h-15.16v39.16h15.52c2.95,0,5.49-.48,7.64-1.43,2.14-.95,3.8-2.28,4.96-4,1.17-1.72,1.75-3.74,1.75-6.07s-.65-4.45-1.94-6.18-3-2.97-5.1-3.72ZM1034.64,436.9h4.48c1.79,0,3.17.39,4.13,1.17.96.78,1.44,1.89,1.44,3.33,0,.99-.22,1.84-.66,2.55-.44.71-1.06,1.25-1.87,1.62-.81.37-1.78.56-2.9.56h-4.62v-9.23ZM1044.07,461.15c-1.01.82-2.52,1.23-4.53,1.23h-4.9v-9.87h5.2c1.9,0,3.33.43,4.29,1.3.96.87,1.44,2.08,1.44,3.65s-.5,2.87-1.51,3.69Z"/>
    <path class="cls-1" d="M1080.76,430.07l-14.63,39.16h10.18l2.71-7.94h14.04l2.77,7.94h10.46l-14.77-39.16h-10.77ZM1081.13,453.54l4.87-13.54,4.92,13.54h-9.79Z"/>
    <polygon class="cls-1" points="1144.23 444.59 1128.79 444.59 1128.79 430.07 1119.5 430.07 1119.5 469.23 1128.79 469.23 1128.79 453.07 1144.23 453.07 1144.23 469.23 1153.52 469.23 1153.52 430.07 1144.23 430.07 1144.23 444.59"/>
    <polygon class="cls-1" points="1180.42 461.09 1180.42 452.84 1195.72 452.84 1195.72 445.4 1180.42 445.4 1180.42 438.13 1198.66 438.13 1198.66 430.07 1171.14 430.07 1171.14 469.23 1198.88 469.23 1198.88 461.09 1180.42 461.09"/>
  </g>
</svg>